<svg xmlns="http://www.w3.org/2000/svg" viewBox="0 0 800 500" width="800" height="500">
  <defs>
    <linearGradient id="bg5" x1="0" y1="0" x2="0" y2="1">
      <stop offset="0%" stop-color="#fef9f0"/>
      <stop offset="100%" stop-color="#fdefd6"/>
    </linearGradient>
  </defs>
  <rect width="800" height="500" fill="url(#bg5)"/>
  <!-- Emergency 24/7 badge -->
  <circle cx="400" cy="160" r="90" fill="#1e3a5f"/>
  <circle cx="400" cy="160" r="80" fill="none" stroke="#d97706" stroke-width="3" stroke-dasharray="8 4"/>
  <text x="400" y="145" text-anchor="middle" font-family="Arial, sans-serif" font-size="36" font-weight="900" fill="#fff">24/7</text>
  <text x="400" y="175" text-anchor="middle" font-family="Arial, sans-serif" font-size="16" font-weight="600" fill="#d97706">EMERGENCY</text>
  <!-- Phone icon -->
  <g transform="translate(280, 280)">
    <rect x="-20" y="-25" width="40" height="50" rx="8" fill="#1e3a5f"/>
    <rect x="-14" y="-18" width="28" height="30" rx="3" fill="#4a5568"/>
    <circle cx="0" cy="18" r="5" fill="#6b7280"/>
  </g>
  <text x="280" y="330" text-anchor="middle" font-family="Arial" font-size="14" font-weight="600" fill="#1e3a5f">Call Anytime</text>
  <!-- Clock icon -->
  <g transform="translate(400, 290)">
    <circle cx="0" cy="0" r="25" fill="#fff" stroke="#1e3a5f" stroke-width="3"/>
    <line x1="0" y1="0" x2="0" y2="-15" stroke="#1e3a5f" stroke-width="3" stroke-linecap="round"/>
    <line x1="0" y1="0" x2="10" y2="5" stroke="#d97706" stroke-width="2.5" stroke-linecap="round"/>
    <circle cx="0" cy="0" r="3" fill="#1e3a5f"/>
  </g>
  <text x="400" y="340" text-anchor="middle" font-family="Arial" font-size="14" font-weight="600" fill="#1e3a5f">Fast Response</text>
  <!-- Wrench + shield -->
  <g transform="translate(520, 275)">
    <path d="M0 -30 L20 -15 L20 10 Q20 30 0 40 Q-20 30 -20 10 L-20 -15Z" fill="#d97706" opacity="0.9"/>
    <path d="M-8 5 L-2 12 L10 -5" stroke="#fff" stroke-width="4" fill="none" stroke-linecap="round" stroke-linejoin="round"/>
  </g>
  <text x="520" y="340" text-anchor="middle" font-family="Arial" font-size="14" font-weight="600" fill="#1e3a5f">Guaranteed</text>
  <!-- Water burst effect -->
  <g opacity="0.3">
    <circle cx="150" cy="150" r="8" fill="#0B7BA7"/>
    <circle cx="170" cy="120" r="5" fill="#0B7BA7"/>
    <circle cx="140" cy="190" r="6" fill="#0B7BA7"/>
    <circle cx="650" cy="140" r="7" fill="#0B7BA7"/>
    <circle cx="670" cy="180" r="5" fill="#0B7BA7"/>
    <circle cx="630" cy="110" r="6" fill="#0B7BA7"/>
  </g>
  <text x="400" y="410" text-anchor="middle" font-family="Arial, sans-serif" font-size="24" font-weight="700" fill="#1e3a5f">Emergency Plumbing Service</text>
  <text x="400" y="440" text-anchor="middle" font-family="Arial, sans-serif" font-size="16" fill="#6b7280">We're here when you need us most</text>
</svg>
