<svg xmlns="http://www.w3.org/2000/svg" viewBox="0 0 800 500" width="800" height="500">
  <defs>
    <linearGradient id="bg3" x1="0" y1="0" x2="0" y2="1">
      <stop offset="0%" stop-color="#f7f8fa"/>
      <stop offset="100%" stop-color="#e8ecf1"/>
    </linearGradient>
  </defs>
  <rect width="800" height="500" fill="url(#bg3)"/>
  <!-- Drain/pipe cross-section -->
  <rect x="200" y="100" width="400" height="40" rx="20" fill="#6b7280"/>
  <rect x="380" y="130" width="40" height="200" fill="#6b7280"/>
  <path d="M380 330 Q400 380 420 330" fill="#6b7280"/>
  <rect x="380" y="140" width="40" height="180" rx="0" fill="#4a5568"/>
  <!-- Inner pipe -->
  <rect x="390" y="145" width="20" height="170" fill="#e5e7eb"/>
  <!-- Blockage -->
  <ellipse cx="400" cy="250" rx="18" ry="12" fill="#d97706" opacity="0.8"/>
  <ellipse cx="395" cy="260" rx="12" ry="8" fill="#b45309" opacity="0.6"/>
  <!-- Arrow showing clearing -->
  <path d="M400 290 L400 340" stroke="#0B7BA7" stroke-width="4" stroke-linecap="round"/>
  <path d="M390 330 L400 345 L410 330" fill="#0B7BA7"/>
  <!-- Water flow lines -->
  <path d="M395 350 Q392 365 395 380" stroke="#0B7BA7" stroke-width="2" fill="none" opacity="0.5"/>
  <path d="M400 355 Q397 370 400 385" stroke="#0B7BA7" stroke-width="2" fill="none" opacity="0.6"/>
  <path d="M405 350 Q402 365 405 380" stroke="#0B7BA7" stroke-width="2" fill="none" opacity="0.5"/>
  <!-- Camera icon -->
  <g transform="translate(580, 150)">
    <rect x="-30" y="-20" width="60" height="45" rx="8" fill="#1e3a5f"/>
    <circle cx="0" cy="5" r="14" fill="#4a5568" stroke="#e5e7eb" stroke-width="2"/>
    <circle cx="0" cy="5" r="6" fill="#0B7BA7"/>
    <rect x="-10" y="-25" width="20" height="8" rx="3" fill="#1e3a5f"/>
  </g>
  <text x="580" y="210" text-anchor="middle" font-family="Arial" font-size="13" fill="#1e3a5f" font-weight="600">Camera</text>
  <text x="580" y="228" text-anchor="middle" font-family="Arial" font-size="13" fill="#1e3a5f" font-weight="600">Inspection</text>
  <text x="400" y="440" text-anchor="middle" font-family="Arial, sans-serif" font-size="24" font-weight="700" fill="#1e3a5f">Drain Cleaning &amp; Inspection</text>
  <text x="400" y="470" text-anchor="middle" font-family="Arial, sans-serif" font-size="16" fill="#6b7280">Clear blockages, restore flow</text>
</svg>
